# xmcd
# 
# Track frame offsets:
#     150
#     20015
#     41476
#     59064
#     81194
#     101333
#     117837
#     139634
#     163983
#     188009
#     209667
#     229582
# 
# Disc length: 3286
# 
# Revision: 1
# Processed by: cddbd v1.5.2PL0 Copyright (c) Steve Scherf et al.
# Submitted via: fre:ac v1.0.31
# 
DISCID=a50cd40c
DTITLE=Sting - The Best Of 25 Years
DYEAR=2011
DGENRE=Rock/Pop
TTITLE0=If You Love Somebody Set Them Free
TTITLE1=We'll Be Together
TTITLE2=Fragile
TTITLE3=All This Time
TTITLE4=If I Ever Lose My Faith in You
TTITLE5=Fields of Gold
TTITLE6=Desert Rose
TTITLE7=Whenever I Say Your Name
TTITLE8=Never Coming Home
TTITLE9=Message in a Bottle (Live)
TTITLE10=Demolition Man (Live)
TTITLE11=Heavy Cloud No Rain (Live)
EXTD=YEAR: 2011
EXTT0=
EXTT1=
EXTT2=
EXTT3=
EXTT4=
EXTT5=
EXTT6=
EXTT7=
EXTT8=
EXTT9=
EXTT10=
EXTT11=
PLAYORDER=
